<svg xmlns="http://www.w3.org/2000/svg" height="1024" preserveAspectRatio="none" style="display: block;" version="1.1" viewBox="0 0 2048 2048" width="1024">
<path d="M 0 0 L 2048 0 L 2048 2048 L 0 2048 L 0 0 z" fill="rgb(255,255,255)" transform="translate(0,0)"></path>
<path d="M 861.022 1513.13 C 860.735 1469.48 860.686 1425.83 860.874 1382.18 L 860.845 1198.77 L 860.781 1131.07 C 860.75 1116.59 860.083 1096.53 862.716 1082.78 C 867.572 1057.2 879.619 1033.54 897.444 1014.56 C 917.584 992.705 944.577 978.039 974.57 976.722 C 974.17 1010.47 973.939 1044.22 973.879 1077.98 C 974.104 1082.43 973.294 1112.54 974.852 1113.75 C 975.26 1113.66 974.977 1113.76 975.81 1113.3 C 978.518 1078.23 991.877 1021.9 1016.07 995.949 C 1052.81 956.551 1122.3 988.515 1154.58 1019.81 C 1187.83 1051.53 1206.85 1095.34 1207.32 1141.28 C 1208.18 1186.8 1190.9 1230.79 1159.28 1263.55 C 1133.11 1290.32 1105.46 1304.05 1068.33 1309.98 C 1055.05 1312.11 1007.11 1306.96 1001.04 1316.74 C 982.906 1345.97 985.064 1389.27 974.361 1421.71 C 958.377 1470.16 913.775 1512.08 861.022 1513.13 z" fill="rgb(10,9,8)" transform="translate(0,0)"></path>
<path d="M 973.879 1077.98 C 974.104 1082.43 973.294 1112.54 974.852 1113.75 C 975.26 1113.66 974.977 1113.76 975.81 1113.3 C 975.947 1114.59 974.353 1131.04 974.156 1133.25 C 972.329 1123.58 972.583 1087.8 973.879 1077.98 z" fill="rgb(107,106,111)" transform="translate(0,0)"></path>
<path d="M 973.846 1331.48 C 974.18 1302.59 974.365 1273.7 974.401 1244.81 C 974.335 1200.97 968.574 1134.56 1002.34 1101.53 C 1014.88 1089.27 1031.8 1082.52 1049.34 1082.79 C 1064.27 1082.96 1078.47 1089.24 1088.65 1100.15 C 1099.17 1111.41 1104.74 1126.42 1104.11 1141.82 C 1102.99 1176.58 1076.16 1198.62 1043.41 1200.56 C 1037.85 1200.88 1030.39 1202.15 1025.11 1204.2 C 995.814 1218.99 988.241 1276.92 982.616 1305.99 C 979.971 1319.66 976.412 1343.11 975.87 1355.28 C 976.128 1358 974.872 1376.13 973.551 1377.56 C 972.35 1374.42 973.124 1336.39 973.846 1331.48 z" fill="rgb(255,255,255)" transform="translate(0,0)"></path>
<path d="M 975.87 1355.28 C 976.128 1358 974.872 1376.13 973.551 1377.56 C 972.35 1374.42 973.124 1336.39 973.846 1331.48 C 974.008 1334.62 973.545 1354.84 974.924 1355.76 C 975.325 1355.65 975.047 1355.76 975.87 1355.28 z" fill="rgb(107,106,111)" transform="translate(0,0)"></path>
<path d="M 688.978 800.245 C 726.587 777.016 763.587 752.816 799.941 727.669 C 818.487 715.016 843.057 699.867 859.055 684.659 C 902.168 643.675 943.495 600.532 984.57 557.585 C 988.33 553.653 1024.55 537.218 1031.22 536.015 C 1067.57 545.796 1064.92 558.212 1086.03 584.037 C 1105.47 607.579 1125.73 630.434 1146.77 652.561 C 1173.11 680.697 1200.59 707.742 1229.13 733.629 C 1237.16 741.071 1245.36 748.315 1253.74 755.357 C 1256.88 757.985 1265.62 764.825 1268.13 767.429 L 1268.09 768.118 L 1268.24 768.28 L 1267.73 769.181 L 1267.81 769.343 L 1267.99 769.336 L 1267.84 769.43 C 1266.85 769.159 1266.47 767.139 1265.46 767.135 C 1263.57 767.129 1263.64 770.416 1263.92 771.443 C 1264.14 772.258 1263.37 773.319 1263.19 773.708 C 1240.04 762.361 1215.39 747.031 1189.07 758.22 C 1185.47 759.751 1179.63 764.469 1176.35 766.945 C 1149.2 763.285 1138.76 760.725 1115.64 746.071 C 1097.11 734.33 1072.56 724.206 1050.23 724.033 C 1012.8 733.211 971.948 738.152 935.052 749.95 C 928.579 752.02 921.162 756.814 916.157 761.309 C 938.434 760.744 961.064 762.114 977.891 778.364 C 993.003 792.956 1014.01 797.362 1032.67 806.905 C 1049.34 815.433 1060.44 824.198 1079.66 825.548 C 1092.2 835.646 1104.1 844.993 1117.59 853.866 C 1133.84 864.564 1153.43 874.317 1169.46 884.755 C 1155.23 883.064 1126.13 883.425 1111.02 883.355 L 1003.51 883.392 L 627.532 883.104 L 509.881 883.22 C 495.078 883.247 467.249 884.256 454.105 883.158 C 451.944 883.383 436.417 884.691 435.789 883.472 C 435.903 883.33 436.016 883.187 436.129 883.045 L 435.959 883.191 L 437.453 882.551 L 437.33 882.539 C 439.2 881.896 440.122 881.736 442.031 881.442 C 503.815 866.237 559.532 833.756 609.731 795.313 C 616.526 790.11 623.627 784.509 630.894 780.033 L 632.111 779.292 C 648.092 776.328 650.105 781.43 662.716 790.564 C 670.371 796.109 680.14 797.719 688.978 800.245 z" fill="rgb(10,9,8)" transform="translate(0,0)"></path>
<path d="M 1031.22 536.015 C 1067.57 545.796 1064.92 558.212 1086.03 584.037 C 1105.47 607.579 1125.73 630.434 1146.77 652.561 C 1173.11 680.697 1200.59 707.742 1229.13 733.629 C 1237.16 741.071 1245.36 748.315 1253.74 755.357 C 1256.88 757.985 1265.62 764.825 1268.13 767.429 L 1268.09 768.118 L 1268.24 768.28 L 1267.73 769.181 L 1267.81 769.343 L 1267.99 769.336 L 1267.84 769.43 C 1266.85 769.159 1266.47 767.139 1265.46 767.135 C 1263.57 767.129 1263.64 770.416 1263.92 771.443 C 1264.14 772.258 1263.37 773.319 1263.19 773.708 C 1240.04 762.361 1215.39 747.031 1189.07 758.22 C 1185.47 759.751 1179.63 764.469 1176.35 766.945 C 1149.2 763.285 1138.76 760.725 1115.64 746.071 C 1097.11 734.33 1072.56 724.206 1050.23 724.033 C 1042.72 708.001 1033.86 685.559 1016.25 679.82 C 996.548 673.402 969.125 679.091 948.495 679.107 C 956.797 649.514 992.269 609.96 1009.01 582.483 C 1018.34 567.158 1031.04 555.399 1031.22 536.015 z" fill="rgb(238,99,42)" transform="translate(0,0)"></path>
<path d="M 632.111 779.292 C 648.092 776.328 650.105 781.43 662.716 790.564 C 670.371 796.109 680.14 797.719 688.978 800.245 C 676.199 808.224 662.325 815.331 649.998 824.045 C 631.111 837.397 606.714 833.471 584.102 836.486 C 605.225 820.683 636.172 813.675 632.281 780.966 L 632.111 779.292 z" fill="rgb(238,99,42)" transform="translate(0,0)"></path>
<path d="M 442.031 881.442 C 445.759 883.48 449.663 882.711 454.105 883.158 C 451.944 883.383 436.417 884.691 435.789 883.472 C 435.903 883.33 436.016 883.187 436.129 883.045 L 435.959 883.191 L 437.453 882.551 L 437.33 882.539 C 439.2 881.896 440.122 881.736 442.031 881.442 z" fill="rgb(55,55,56)" transform="translate(0,0)"></path>
<path d="M 1649.36 976.631 C 1742.36 971.551 1821.91 1042.72 1827.19 1135.7 C 1832.46 1228.69 1761.47 1308.39 1668.49 1313.87 C 1575.24 1319.35 1495.24 1248.1 1489.95 1154.84 C 1484.66 1061.57 1556.08 981.726 1649.36 976.631 z" fill="rgb(10,9,8)" transform="translate(0,0)"></path>
<path d="M 1656.39 1083.22 C 1689.79 1082.03 1717.89 1108.05 1719.28 1141.45 C 1720.67 1174.85 1694.83 1203.1 1661.44 1204.69 C 1627.76 1206.3 1599.21 1180.19 1597.8 1146.5 C 1596.4 1112.81 1622.69 1084.42 1656.39 1083.22 z" fill="rgb(255,255,255)" transform="translate(0,0)"></path>
<path d="M 373.575 977.367 C 384.512 975.77 406.448 976.537 416.993 977.881 C 461.375 983.871 501.532 1007.32 528.556 1043.03 C 556.264 1078.78 568.327 1124.22 562 1169.01 C 556.067 1213.26 532.52 1253.24 496.696 1279.89 C 457.995 1309.16 411.913 1318.55 364.148 1311.79 C 330.093 1306.98 292.659 1292.87 271.403 1264.49 C 244.993 1229.23 257.461 1188.22 303.659 1181.98 C 315.559 1180.33 322.914 1181.62 334.78 1183.79 C 357.686 1191.17 373.434 1205.95 400.351 1203.92 C 433.388 1201.43 456.279 1168.93 453.143 1136.68 C 451.566 1120.61 443.542 1105.86 430.903 1095.8 C 405.324 1075.79 365.198 1078.88 346.185 1106.45 C 332.871 1125.76 331.142 1147.04 334.872 1169.58 C 304.097 1164.54 271.568 1165.27 249.771 1192.35 C 241.538 1202.58 240.073 1214.44 241.878 1227.12 C 196.191 1155.64 227.165 1056.59 292.822 1008.46 C 317.676 990.244 343.141 981.199 373.575 977.367 z" fill="rgb(10,9,8)" transform="translate(0,0)"></path>
<path d="M 676.43 982.415 C 697.682 981.472 725.511 982.519 747.356 982.574 C 789.526 982.486 831.695 982.742 873.86 983.342 C 866.21 1056.27 827.334 1074.54 774.424 1115.15 C 750.561 1133.29 726.857 1151.64 703.316 1170.19 C 694.082 1177.42 674.348 1190.17 667.79 1198.15 C 730.767 1197.78 793.746 1197.81 856.723 1198.22 C 848.901 1262.51 796.507 1310.28 731.686 1311.42 C 665.377 1311.76 599.067 1311.67 532.759 1311.16 C 546.654 1243.65 577.339 1227.19 628.839 1189.54 L 715.005 1126.4 C 727.179 1117.56 743.263 1107.25 754.585 1098.24 L 755.537 1097.47 C 734.729 1096.29 707.986 1096.95 686.791 1096.94 L 564.226 1097.12 C 569.12 1038.76 616.89 986.195 676.43 982.415 z" fill="rgb(10,9,8)" transform="translate(0,0)"></path>
<path d="M 1222.69 1313.19 C 1222.08 1252.9 1222.43 1192.81 1222.76 1132.52 C 1222.87 1113.82 1221.79 1095.86 1226.04 1077.45 C 1231.79 1052.59 1244.22 1029.77 1262 1011.47 C 1282.12 990.911 1307.99 977.374 1337.09 976.953 C 1337.06 1030.36 1334.66 1084.03 1334.88 1136.93 C 1335.68 1143.79 1334.11 1150.75 1336.66 1154.88 C 1342.12 1107.26 1355.56 1044.98 1390.97 1011.02 C 1422.06 981.195 1449.9 976.863 1491.12 977.345 L 1491.22 1091.09 C 1412.07 1096.89 1360.24 1085.56 1344.29 1184.81 C 1342.51 1195.89 1339.11 1211.75 1335.68 1222.38 C 1319.4 1272.82 1277.01 1311.44 1222.69 1313.19 z" fill="rgb(10,9,8)" transform="translate(0,0)"></path>
<path d="M 1334.88 1136.93 C 1335.68 1143.79 1334.11 1150.75 1336.66 1154.88 C 1336.64 1158.32 1336.08 1161.57 1336.02 1165.1 L 1334.05 1165.87 C 1333.99 1157.23 1333.72 1145.36 1334.88 1136.93 z" fill="rgb(220,224,227)" transform="translate(0,0)"></path>
<path d="M 1334.05 1165.87 L 1336.02 1165.1 C 1336.01 1169.12 1335.64 1174.15 1335.24 1178.17 L 1333.88 1176.94 C 1334.04 1173.25 1333.81 1169.56 1334.05 1165.87 z" fill="rgb(107,106,111)" transform="translate(0,0)"></path>
<path d="M 1333.88 1176.94 L 1335.24 1178.17 C 1335.02 1190.49 1332.23 1186.04 1333.88 1176.94 z" fill="rgb(55,55,56)" transform="translate(0,0)"></path>
<path d="M 1313.44 799.61 C 1335.64 787.702 1357.56 776.28 1376.82 759.928 C 1386.07 752.077 1395.68 744.443 1405.02 736.661 C 1424.65 747.369 1441.8 758.517 1453.01 778.393 C 1473.91 815.452 1514.59 833.557 1548.7 856.275 C 1569.48 870.114 1593.12 877.888 1617.36 882.84 C 1598.36 883.78 1566.18 884.838 1547.27 883.424 C 1527.37 882.616 1511.32 883.183 1491.39 879.157 C 1447.8 870.356 1408.17 849.495 1368.81 829.557 C 1352.88 821.487 1328.05 809.218 1313.44 799.61 z" fill="rgb(10,9,8)" transform="translate(0,0)"></path>
<path d="M 1405.02 736.661 C 1424.65 747.369 1441.8 758.517 1453.01 778.393 C 1473.91 815.452 1514.59 833.557 1548.7 856.275 C 1569.48 870.114 1593.12 877.888 1617.36 882.84 C 1598.36 883.78 1566.18 884.838 1547.27 883.424 C 1550.25 883.291 1551.94 883.111 1554.91 882.704 C 1555.76 883.456 1522.41 872.359 1519.11 871.205 C 1488.37 860.481 1464.33 849.187 1437.16 831.281 C 1436.08 825.687 1435.46 820.257 1434.77 814.616 C 1420.19 801.595 1415.8 803.956 1396.89 801.372 C 1399.02 795.636 1401.05 789.86 1402.96 784.048 L 1391.95 776.614 C 1397.8 772.636 1411.51 765.442 1415.15 761.496 C 1415.9 756.23 1407.33 743.593 1405.02 736.661 z" fill="rgb(238,99,42)" transform="translate(0,0)"></path>
<path d="M 1115.82 779.186 C 1139.77 777.389 1139.24 785.589 1160.5 790.13 C 1169.04 791.954 1185.13 782.787 1195.5 785.012 C 1203.87 786.812 1211.38 789.477 1212.08 799.494 C 1212.02 801.544 1202.46 804.883 1199.84 806.04 C 1186.33 811.753 1174.61 820.585 1160 813.2 C 1150.44 808.389 1143.32 801.31 1133.76 796.316 C 1126.62 792.593 1117.04 790.154 1111.03 784.89 C 1108.77 782.917 1114.62 779.951 1115.82 779.186 z" fill="rgb(238,99,42)" transform="translate(0,0)"></path>
<path d="M 1263.19 773.708 C 1263.37 773.319 1264.14 772.258 1263.92 771.443 C 1263.64 770.416 1263.57 767.129 1265.46 767.135 C 1266.47 767.139 1266.85 769.159 1267.84 769.43 L 1267.99 769.336 L 1267.81 769.343 L 1267.73 769.181 L 1268.24 768.28 L 1268.09 768.118 L 1268.13 767.429 C 1277.57 774.262 1289.35 783.178 1298.85 790.287 C 1292.84 787.809 1268.49 776.984 1263.19 773.708 z" fill="rgb(231,113,61)" transform="translate(0,0)"></path>
<metadata><recraft-signature>{"signed_by": "recraft", "signature_b64": "t26ruKoUt6GFzH0bwEVEmIPn5u+Ep5Uq8haIYIIyLKL0RbIpAEzNgEZxML+EKFJuP2piZO1/ZbKWP07EoRgPBA==", "signing_algo": "Ed25519", "generation_timestamp": 1774262104, "identifier": "f1d35383-0e01-4462-9aad-94fc6967a875"}</recraft-signature></metadata></svg>